{
  "asset": {
    "version": "2.0",
    "generator": "THREE.GLTFExporter"
  },
  "scenes": [
    {
      "nodes": [
        0
      ]
    }
  ],
  "scene": 0,
  "nodes": [
    {
      "children": [
        8
      ],
      "matrix": [
        0.01,
        0,
        0,
        0,
        0,
        0.01,
        0,
        0,
        0,
        0,
        0.01,
        0,
        0,
        0,
        0,
        1
      ]
    },
    {
      "matrix": [
        8.097611800425834e-15,
        -2.4312267657992477,
        0,
        0,
        2.4312267657992477,
        8.097611800425834e-15,
        0,
        0,
        0,
        0,
        2.4312267657992415,
        0,
        -103.04669794485403,
        488.53729355849447,
        -98.75549365014695,
        1
      ],
      "name": "Cube 42",
      "mesh": 0
    },
    {
      "matrix": [
        4.0886435692401166e-15,
        -1.3639713818430048,
        0,
        0,
        1.3639713818430048,
        4.0886435692401166e-15,
        0,
        0,
        0,
        0,
        1.363971381843001,
        0,
        -194.10435076112424,
        342.87852143507575,
        242.3013427922614,
        0.9999999999999998
      ],
      "name": "Cube 41",
      "mesh": 1
    },
    {
      "matrix": [
        4.088704805380784e-15,
        -1.3639918102178412,
        0,
        0,
        1.3639918102178412,
        4.088704805380784e-15,
        0,
        0,
        0,
        0,
        1.3639918102178377,
        0,
        345.8475354785769,
        342.8714423638483,
        -31.727895596299962,
        1
      ],
      "name": "Cube 40",
      "mesh": 2
    },
    {
      "matrix": [
        -1.745126118212812e-15,
        -9.972149246930355e-16,
        1.122764190813963,
        0,
        1.122764190813964,
        -7.479111935197774e-16,
        1.682800185419499e-15,
        0,
        6.855852607264634e-16,
        1.1227641908139654,
        9.972149246930378e-16,
        0,
        -428.59821524405584,
        -584.7289716913449,
        117.73951604422678,
        1
      ],
      "name": "Cube 37",
      "mesh": 3
    },
    {
      "matrix": [
        0.2322080127301233,
        0,
        0,
        0,
        0,
        0.2322080127301233,
        0,
        0,
        0,
        0,
        0.2322080127301233,
        0,
        -1.1368683772161603e-13,
        0,
        0,
        0.9999999999999999
      ],
      "name": "tree1",
      "children": [
        1,
        2,
        3,
        4
      ]
    },
    {
      "matrix": [
        0.9993509893569956,
        1.3163124453277608e-8,
        -0.036022216355936505,
        0,
        -0.01688329034382597,
        0.8833623286539991,
        -0.4683865399668848,
        0,
        0.031820662758027925,
        0.46869072565497166,
        0.8827890173233104,
        0,
        31.820662758027904,
        468.6907256549714,
        882.78901732331,
        1
      ],
      "camera": 0
    },
    {
      "matrix": [
        1,
        0,
        0,
        0,
        0,
        1,
        0,
        0,
        0,
        0,
        1,
        0,
        0,
        1,
        0,
        1
      ],
      "name": "Default Ambient Light"
    },
    {
      "name": "Scene 1",
      "children": [
        5,
        6,
        7
      ]
    }
  ],
  "bufferViews": [
    {
      "buffer": 0,
      "byteOffset": 0,
      "byteLength": 7200,
      "target": 34962,
      "byteStride": 12
    },
    {
      "buffer": 0,
      "byteOffset": 7200,
      "byteLength": 7200,
      "target": 34962,
      "byteStride": 12
    },
    {
      "buffer": 0,
      "byteOffset": 14400,
      "byteLength": 4800,
      "target": 34962,
      "byteStride": 8
    },
    {
      "buffer": 0,
      "byteOffset": 19200,
      "byteLength": 4296,
      "target": 34963
    },
    {
      "buffer": 0,
      "byteOffset": 23496,
      "byteLength": 7200,
      "target": 34962,
      "byteStride": 12
    },
    {
      "buffer": 0,
      "byteOffset": 30696,
      "byteLength": 7200,
      "target": 34962,
      "byteStride": 12
    },
    {
      "buffer": 0,
      "byteOffset": 37896,
      "byteLength": 4800,
      "target": 34962,
      "byteStride": 8
    },
    {
      "buffer": 0,
      "byteOffset": 42696,
      "byteLength": 4296,
      "target": 34963
    },
    {
      "buffer": 0,
      "byteOffset": 46992,
      "byteLength": 7200,
      "target": 34962,
      "byteStride": 12
    },
    {
      "buffer": 0,
      "byteOffset": 54192,
      "byteLength": 7200,
      "target": 34962,
      "byteStride": 12
    },
    {
      "buffer": 0,
      "byteOffset": 61392,
      "byteLength": 4800,
      "target": 34962,
      "byteStride": 8
    },
    {
      "buffer": 0,
      "byteOffset": 66192,
      "byteLength": 4296,
      "target": 34963
    },
    {
      "buffer": 0,
      "byteOffset": 70488,
      "byteLength": 7296,
      "target": 34962,
      "byteStride": 12
    },
    {
      "buffer": 0,
      "byteOffset": 77784,
      "byteLength": 7296,
      "target": 34962,
      "byteStride": 12
    },
    {
      "buffer": 0,
      "byteOffset": 85080,
      "byteLength": 3648,
      "target": 34963
    }
  ],
  "buffers": [
    {
      "byteLength": 88728,
      "uri": "data:application/octet-stream;base64,"
    }
  ],
  "accessors": [
    {
      "bufferView": 0,
      "componentType": 5126,
      "count": 600,
      "max": [
        134.5,
        134.5,
        134.5
      ],
      "min": [
        -134.5,
        -134.5,
        -134.5
      ],
      "type": "VEC3"
    },
    {
      "bufferView": 1,
      "componentType": 5126,
      "count": 600,
      "max": [
        1,
        1,
        1
      ],
      "min": [
        -1,
        -1,
        -1
      ],
      "type": "VEC3"
    },
    {
      "bufferView": 2,
      "componentType": 5126,
      "count": 600,
      "max": [
        1,
        1
      ],
      "min": [
        0,
        0
      ],
      "type": "VEC2"
    },
    {
      "bufferView": 3,
      "componentType": 5123,
      "count": 2148,
      "max": [
        599
      ],
      "min": [
        0
      ],
      "type": "SCALAR"
    },
    {
      "bufferView": 4,
      "componentType": 5126,
      "count": 600,
      "max": [
        134.5,
        134.5,
        134.5
      ],
      "min": [
        -134.5,
        -134.5,
        -134.5
      ],
      "type": "VEC3"
    },
    {
      "bufferView": 5,
      "componentType": 5126,
      "count": 600,
      "max": [
        1,
        1,
        1
      ],
      "min": [
        -1,
        -1,
        -1
      ],
      "type": "VEC3"
    },
    {
      "bufferView": 6,
      "componentType": 5126,
      "count": 600,
      "max": [
        1,
        1
      ],
      "min": [
        0,
        0
      ],
      "type": "VEC2"
    },
    {
      "bufferView": 7,
      "componentType": 5123,
      "count": 2148,
      "max": [
        599
      ],
      "min": [
        0
      ],
      "type": "SCALAR"
    },
    {
      "bufferView": 8,
      "componentType": 5126,
      "count": 600,
      "max": [
        154.5,
        154.5,
        154.5
      ],
      "min": [
        -154.5,
        -154.5,
        -154.5
      ],
      "type": "VEC3"
    },
    {
      "bufferView": 9,
      "componentType": 5126,
      "count": 600,
      "max": [
        1,
        1,
        1
      ],
      "min": [
        -1,
        -1,
        -1
      ],
      "type": "VEC3"
    },
    {
      "bufferView": 10,
      "componentType": 5126,
      "count": 600,
      "max": [
        1,
        1
      ],
      "min": [
        0,
        0
      ],
      "type": "VEC2"
    },
    {
      "bufferView": 11,
      "componentType": 5123,
      "count": 2148,
      "max": [
        599
      ],
      "min": [
        0
      ],
      "type": "SCALAR"
    },
    {
      "bufferView": 12,
      "componentType": 5126,
      "count": 608,
      "max": [
        98.91665649414062,
        768.3821411132812,
        933.3433227539062
      ],
      "min": [
        -162.36581420898438,
        -87.55940246582031,
        -187.94981384277344
      ],
      "type": "VEC3"
    },
    {
      "bufferView": 13,
      "componentType": 5126,
      "count": 608,
      "max": [
        0.999950647354126,
        0.9984815120697021,
        1
      ],
      "min": [
        -0.9997587203979492,
        -0.9993370175361633,
        -0.9885878562927246
      ],
      "type": "VEC3"
    },
    {
      "bufferView": 14,
      "componentType": 5125,
      "count": 912,
      "max": [
        607
      ],
      "min": [
        0
      ],
      "type": "SCALAR"
    }
  ],
  "materials": [
    {
      "pbrMetallicRoughness": {
        "baseColorFactor": [
          0.16982682981893302,
          0.6324157372571257,
          0.2816085356850495,
          1
        ],
        "metallicFactor": 0,
        "roughnessFactor": 1
      },
      "doubleSided": false
    },
    {
      "pbrMetallicRoughness": {
        "baseColorFactor": [
          0.20271262130546347,
          0.05996794547673915,
          0.011878070927464833,
          1
        ],
        "metallicFactor": 0,
        "roughnessFactor": 0.9131660908646596
      },
      "doubleSided": false
    }
  ],
  "meshes": [
    {
      "primitives": [
        {
          "mode": 4,
          "attributes": {
            "POSITION": 0,
            "NORMAL": 1,
            "TEXCOORD_0": 2
          },
          "extras": {
            "parameters": {
              "width": 269,
              "widthSegments": 1,
              "heightSegments": 1,
              "depthSegments": 1,
              "cornerRadius": 44,
              "cornerSegments": 8,
              "height": 269,
              "depth": 269,
              "type": "CubeGeometry"
            },
            "type": "CubeGeometry"
          },
          "indices": 3,
          "material": 0
        }
      ]
    },
    {
      "primitives": [
        {
          "mode": 4,
          "attributes": {
            "POSITION": 4,
            "NORMAL": 5,
            "TEXCOORD_0": 6
          },
          "extras": {
            "parameters": {
              "width": 269,
              "widthSegments": 1,
              "heightSegments": 1,
              "depthSegments": 1,
              "cornerRadius": 44,
              "cornerSegments": 8,
              "height": 269,
              "depth": 269,
              "type": "CubeGeometry"
            },
            "type": "CubeGeometry"
          },
          "indices": 7,
          "material": 0
        }
      ]
    },
    {
      "primitives": [
        {
          "mode": 4,
          "attributes": {
            "POSITION": 8,
            "NORMAL": 9,
            "TEXCOORD_0": 10
          },
          "extras": {
            "parameters": {
              "width": 309,
              "widthSegments": 1,
              "heightSegments": 1,
              "depthSegments": 1,
              "cornerRadius": 44,
              "cornerSegments": 8,
              "height": 309,
              "depth": 309,
              "type": "CubeGeometry"
            },
            "type": "CubeGeometry"
          },
          "indices": 11,
          "material": 0
        }
      ]
    },
    {
      "primitives": [
        {
          "mode": 4,
          "attributes": {
            "POSITION": 12,
            "NORMAL": 13
          },
          "extras": {
            "type": "SubdivGeometry",
            "parameters": {
              "width": 287.8468475341797,
              "height": 891.0141448974609,
              "depth": 1157.4674377441406
            }
          },
          "indices": 14,
          "material": 1
        }
      ]
    }
  ],
  "cameras": [
    {
      "type": "orthographic",
      "orthographic": {
        "xmag": 17.2,
        "ymag": 6.995,
        "zfar": 100000,
        "znear": 0
      }
    }
  ]
}